<svg id="Layer_1" data-name="Layer 1" xmlns="http://www.w3.org/2000/svg" viewBox="0 0 150.23 53.23"><defs><style>.cls-1{fill:#c7af79;}.cls-2{fill:none;}.cls-3{fill:#0b462d;}.cls-4,.cls-5,.cls-6{fill:#030;}.cls-4{stroke:#030;stroke-miterlimit:10;}.cls-6{font-size:8.1px;font-family:MyriadPro-Semibold, Myriad Pro;font-weight:700;letter-spacing:0.11em;}.cls-7{letter-spacing:0.11em;}.cls-8{letter-spacing:0.11em;}.cls-9{letter-spacing:0.1em;}.cls-10{letter-spacing:0.11em;}.cls-11{letter-spacing:0.11em;}.cls-12{letter-spacing:0.11em;}.cls-13{letter-spacing:0.11em;}.cls-14{letter-spacing:0.11em;}.cls-15{letter-spacing:0.11em;}.cls-16{letter-spacing:0.11em;}.cls-17{letter-spacing:0.11em;}.cls-18{letter-spacing:0.11em;}.cls-19{letter-spacing:0.1em;}</style></defs><title>bcr_icon</title><path class="cls-1" d="M27.08,34.95c-7.75,0-14-5.64-14-12.59,0-.26,0-.51,0-.77a11.39,11.39,0,0,1,.52-2.73c1.69-5.25,7.08-9.1,13.48-9.1a15.74,15.74,0,0,1,1.79.1,15.09,15.09,0,0,1,5,1.45,10.3,10.3,0,0,0-3.78-5.89A14.49,14.49,0,0,0,21.8,2.79H3.39v19.5h0v19.5H21.65a15.73,15.73,0,0,0,2.1-.14h0l.53-.09.3-.06.13,0,.76-.17.09,0,.44-.12.08,0a10.75,10.75,0,0,0,7.51-7c.07-.23.14-.46.2-.7a14.81,14.81,0,0,1-2.05.82A15.46,15.46,0,0,1,27.08,34.95Z" transform="translate(-3.39 -2.79)"/><path class="cls-2" d="M29.89,26.55h0Z" transform="translate(-3.39 -2.79)"/><path class="cls-2" d="M35.65,29.21A5.9,5.9,0,0,0,34.11,28,8.62,8.62,0,0,1,35.65,29.21Z" transform="translate(-3.39 -2.79)"/><path class="cls-1" d="M36.29,30.68" transform="translate(-3.39 -2.79)"/><path class="cls-1" d="M36.29,31.86v5.31a5.68,5.68,0,0,0,.4,2.16l.14.31,0,0a3.9,3.9,0,0,0,3.34,2.1h9.36V31.69a5.77,5.77,0,0,0-2.94-5.29,12.12,12.12,0,0,0-1.34-.72A9.48,9.48,0,0,0,43.35,25a.45.45,0,0,1-.42-.43.43.43,0,0,1,.26-.39l.27,0A8.81,8.81,0,0,0,48.62,21a11.89,11.89,0,0,0,1.1-2.17A10.1,10.1,0,0,0,47,7.38C44.26,4.92,39.28,2.79,31,2.79c0,0,5.8,2.37,6.67,8.3a6.94,6.94,0,0,1-.38,3.57l-.1.23v0a6.56,6.56,0,0,1-5.9,3.6H27.43a4.37,4.37,0,0,0-4.52,3.94s0,0,0,.06a3.74,3.74,0,0,0,1.3,2.73,4.42,4.42,0,0,0,1.9,1h0a4.84,4.84,0,0,0,1.09.14h0l1.23,0a10.89,10.89,0,0,1,1.43.15H30A12.12,12.12,0,0,1,34.11,28l0,0a4.09,4.09,0,0,1,2.1,3A6.11,6.11,0,0,1,36.29,31.86Z" transform="translate(-3.39 -2.79)"/><path class="cls-3" d="M28.47,26.4a13.86,13.86,0,0,1,1.43.15A10.89,10.89,0,0,0,28.47,26.4Z" transform="translate(-3.39 -2.79)"/><path class="cls-4" d="M83,18.38a5.85,5.85,0,0,1,1.81,1.73,4.3,4.3,0,0,1,.7,2.45,5,5,0,0,1-.79,2.86,5.34,5.34,0,0,1-2.28,1.84,13.21,13.21,0,0,1-3.62,1,34.06,34.06,0,0,1-4.82.3H61.13V27.35l1.36-.14A5.4,5.4,0,0,0,63.65,27a1.64,1.64,0,0,0,.88-.62,1.88,1.88,0,0,0,.24-1V9.72a2.05,2.05,0,0,0-.19-.94,1.65,1.65,0,0,0-.92-.66,7.49,7.49,0,0,0-1.26-.34l-1.26-.21V6.35H74.58q5.08,0,7.33,1.25a4,4,0,0,1,2.25,3.69,3.81,3.81,0,0,1-.51,2,4.61,4.61,0,0,1-1.45,1.48,9,9,0,0,1-2,1,19.17,19.17,0,0,1-2.55.7v.3a15.68,15.68,0,0,1,2.83.54A10.28,10.28,0,0,1,83,18.38Zm-5.62-6.68a3.66,3.66,0,0,0-1.16-2.88,5.1,5.1,0,0,0-3.48-1l-.86,0-.92,0v8.23h.91A6.19,6.19,0,0,0,76,14.89,4,4,0,0,0,77.37,11.69ZM78.6,22.36a4.31,4.31,0,0,0-1.54-3.56,6.88,6.88,0,0,0-4.41-1.24l-.88,0-.81,0v8.14a1.66,1.66,0,0,0,1,1,4.5,4.5,0,0,0,2,.4,4.4,4.4,0,0,0,4.68-4.78Z" transform="translate(-3.39 -2.79)"/><path class="cls-4" d="M107.21,29.18a16,16,0,0,1-5.09-.79A12.27,12.27,0,0,1,98,26.09a10.42,10.42,0,0,1-2.72-3.64,11.33,11.33,0,0,1-1-4.77,11.31,11.31,0,0,1,3.82-8.61,12.58,12.58,0,0,1,4.27-2.45,16.1,16.1,0,0,1,5.34-.87,14.47,14.47,0,0,1,3.75.45,16.51,16.51,0,0,1,2.86,1l1.08-.86h1.52l.16,8.11h-1.54A13.79,13.79,0,0,0,112.39,9a6.23,6.23,0,0,0-4.46-1.74,5.59,5.59,0,0,0-5,2.59,13.19,13.19,0,0,0-1.71,7.28,15.33,15.33,0,0,0,.58,4.52,8.86,8.86,0,0,0,1.53,3,6.09,6.09,0,0,0,2.39,1.75,8.58,8.58,0,0,0,7.4-.63,11.55,11.55,0,0,0,3.48-3.6l1.5.81a13.4,13.4,0,0,1-1.71,2.47,10,10,0,0,1-2.22,1.87,12.1,12.1,0,0,1-3,1.35A14.16,14.16,0,0,1,107.21,29.18Z" transform="translate(-3.39 -2.79)"/><path class="cls-5" d="M144.09,28.07c-1.57-2.16-2.9-3.91-4-5.2s-2.46-2.9-4.07-4.66l-.15-.16h-1.67V25.3a2.31,2.31,0,0,0,.31,1.21,2.22,2.22,0,0,0,1.14.86,7,7,0,0,0,1.13.29l.8.13v.28H125.42V27.8l.89-.09a5.93,5.93,0,0,0,1.29-.24,2.13,2.13,0,0,0,1.15-.85,2.39,2.39,0,0,0,.3-1.23V9.72a2.56,2.56,0,0,0-.25-1.17,2.09,2.09,0,0,0-1.19-.9,8.81,8.81,0,0,0-1.41-.37l-.79-.14V6.85H138.8a14.84,14.84,0,0,1,6.84,1.25,3.74,3.74,0,0,1,2.15,3.51A4.41,4.41,0,0,1,146.46,15a9.9,9.9,0,0,1-4.33,2.09l-.78.2.52.61,2.77,3.2q1.58,1.82,3.29,3.72c.37.41.87.93,1.5,1.52a4.74,4.74,0,0,0,1.86,1.21,8,8,0,0,0,1.09.2l.44.05v.27Zm-9.85-10.49h1.83a6.44,6.44,0,0,0,4.3-1.33,5.24,5.24,0,0,0,1.59-4.2,4.26,4.26,0,0,0-1.59-3.65,7.06,7.06,0,0,0-4.25-1.12h-1.88Z" transform="translate(-3.39 -2.79)"/><path class="cls-5" d="M133.74,7.35V25.3a2.81,2.81,0,0,0,.38,1.47,2.38,2.38,0,0,0,.84.8h-6.44a2.18,2.18,0,0,0,.67-.69,2.88,2.88,0,0,0,.37-1.49V9.72a3,3,0,0,0-.3-1.39,2.27,2.27,0,0,0-1.08-1h5.57m5.78,0a13.39,13.39,0,0,1,5.88,1.18,3.24,3.24,0,0,1,1.89,3.07,3.94,3.94,0,0,1-1.18,3,9.44,9.44,0,0,1-4.11,2l-1.55.41,1,1.21,2.77,3.2c1.05,1.21,2.16,2.46,3.29,3.72.38.43.9,1,1.53,1.56a7.3,7.3,0,0,0,1.08.87h-5.83c-1.51-2.07-2.79-3.75-3.82-5s-2.37-2.8-3.92-4.49a6.63,6.63,0,0,0,4.08-1.43,5.71,5.71,0,0,0,1.76-4.58A4.73,4.73,0,0,0,140.66,8a5.34,5.34,0,0,0-1.14-.64m-.72-1H124.91V7.58l1.19.2a8.32,8.32,0,0,1,1.32.34,1.65,1.65,0,0,1,.92.66,2.05,2.05,0,0,1,.19.94V25.39a1.9,1.9,0,0,1-.23,1,1.67,1.67,0,0,1-.89.63,5.58,5.58,0,0,1-1.18.21l-1.33.13v1.22h13.21V27.35q-.51,0-1.21-.18a6.65,6.65,0,0,1-1-.26,1.77,1.77,0,0,1-.9-.66,1.82,1.82,0,0,1-.24-1V18.55h1q2.42,2.63,4.05,4.63t4.09,5.38h9.5V27.35l-.88-.09a7.56,7.56,0,0,1-1-.19A4.32,4.32,0,0,1,149.78,26q-.93-.88-1.47-1.5-1.71-1.89-3.29-3.71l-2.76-3.19a10.33,10.33,0,0,0,4.54-2.22,4.93,4.93,0,0,0,1.49-3.75,4.23,4.23,0,0,0-2.42-4,15.22,15.22,0,0,0-7.07-1.31Zm-4.06,10.72V7.78h1.38a6.56,6.56,0,0,1,4,1,3.77,3.77,0,0,1,1.39,3.25A4.75,4.75,0,0,1,140,15.87a6,6,0,0,1-4,1.21Z" transform="translate(-3.39 -2.79)"/><text x="-3.39" y="-2.79"></text><text x="-3.39" y="-2.79"></text><text x="-3.39" y="-2.79"></text><text class="cls-6" transform="translate(56.57 37.02)">B<tspan class="cls-7" x="5.58" y="0">r</tspan><tspan class="cls-8" x="9.34" y="0">idg</tspan><tspan class="cls-9" x="23.46" y="0">e </tspan><tspan class="cls-10" x="30.94" y="0">T</tspan><tspan class="cls-11" x="36.11" y="0">h</tspan><tspan class="cls-9" x="41.64" y="0">e </tspan><tspan class="cls-12" x="49.11" y="0">D</tspan><tspan class="cls-13" x="55.57" y="0">i</tspan><tspan class="cls-14" x="58.56" y="0">ff</tspan><tspan class="cls-15" x="64.48" y="0">e</tspan><tspan class="cls-16" x="69.57" y="0">r</tspan><tspan class="cls-17" x="73.34" y="0">e</tspan><tspan class="cls-18" x="78.44" y="0">n</tspan><tspan class="cls-19" x="83.96" y="0">c</tspan><tspan class="cls-9" x="88.42" y="0">e</tspan></text></svg>