<svg xmlns="http://www.w3.org/2000/svg" width="405" height="200" viewBox="0 0 405 200"><path fill="#7EC479" d="M70.79 169.804c-7.014 2.214-14.992 1.35-21.252-2.56-12.413-7.71-24.847-15.402-37.28-23.078-4.795-2.91-8.317-7.798-9.647-13.232-.81-3.436-.574-6.993-.588-10.494 0-13.175 0-26.35-.007-39.524-.058-7.238 3.78-14.382 9.947-18.2 12.564-7.782 25.15-15.53 37.698-23.336 3.55-2.214 7.676-3.328 11.816-3.716l3.838-.106c4.14.388 8.266 1.502 11.816 3.716 12.55 7.806 25.135 15.554 37.698 23.338 6.167 3.817 10.005 10.96 9.947 18.2-.007 13.174-.007 26.348-.007 39.523-.014 3.5.223 7.058-.59 10.494-1.33 5.433-4.85 10.32-9.645 13.23-12.433 7.677-35.785 23.135-43.742 25.744z"/><path fill="#fff" d="M62.07 130.65c1.48 2.75 2.7 2.172 4.66 2.623 2.49.264 4.54 1.778 6.408 3.38-2.314-.447-4.63-1.07-7.033-1.602 1.604 1.958 3.028 4.01 3.83 6.41-2.94-1.693-7.112-5.786-8.543-6.23-.82-.247-3.082.058-4.15 3.403-1.7-2.076 1.83-4.916 1.294-8.837-.088-2.402-1.525-3.33-2.274-5.902-1.473-1.358-3.623-1.473-5.434-2.148-3.17 3.62-6.533 8.4-3.888 13.31 1.882 3.488 3.436 2.76 5.924 3.325 3.17.338 5.773 2.264 8.15 4.3-2.942-.565-5.884-1.355-8.942-2.036 2.037 2.49 3.85 5.09 4.867 8.15-3.735-2.15-6.906-5.434-10.866-7.135-3.733-.11-5.886 3.395-8.49 5.326.452-4.87 5.548-8.036 4.867-13.016-.11-3.06-.34-7.022-3.847-8.15-6.34-2.602-11.884-7.693-14.148-14.26-2.83-8.263-2.376-17.885 2.038-25.58 5.66-10.07 17.657-14.712 28.75-15.957 12.45-.453 23.31 7.017 33.385 13.468 3.738.567 8.152-.45 10.98 2.83 3.962 3.735 2.943 9.507 2.943 14.373 3.622 9.963 9.62 19.354 10.185 30.106-1.13-.793-2.04-1.813-2.376-3.172-3.282-8.825-6.34-18.556-14.374-24.105-5.32-3.28-11.43.34-17.09.224-4.753 0-8.376 3.396-12.226 5.548-.226 4.868-1.922 9.396-4.865 13.127.002 0-1.818 4.373.264 8.23z"/><g fill="#3B3B3B"><path d="M135.948 59.394c0-3.272 2.573-5.842 5.845-5.842s5.842 2.57 5.842 5.842v75.968c0 3.272-2.57 5.842-5.842 5.842s-5.845-2.57-5.845-5.842V59.394zM174.79 135.48L152.7 91.183c-1.4-2.803-.232-6.31 2.69-7.83 2.803-1.4 6.308-.232 7.83 2.688l18.114 36.23 18.115-36.346c1.517-2.803 5.025-3.972 7.945-2.57 2.806 1.518 3.974 5.026 2.573 7.946l-31.44 62.993c-5.023 9.7-14.607 16.128-26.177 16.128-3.27 0-5.844-2.57-5.844-5.842 0-3.27 2.573-5.844 5.845-5.844 6.312 0 12.74-4.088 15.193-8.648l7.247-14.61zM226.47 135.362c0 3.272-2.572 5.842-5.844 5.842-3.272 0-5.842-2.57-5.842-5.842v-64.28c0-9.7 7.83-17.53 17.53-17.53 4.792 0 9.233 1.987 12.388 5.143 2.337 2.337 2.337 6.075 0 8.298-2.22 2.337-5.962 2.337-8.298 0-1.168-1.17-2.57-1.754-4.09-1.754-3.273 0-5.843 2.686-5.843 5.84V82.77h13.792c3.272 0 5.842 2.573 5.842 5.845s-2.57 5.842-5.842 5.842h-13.79v40.907zM250.57 65.24c0-3.273 2.574-5.846 5.846-5.846 3.272 0 5.842 2.573 5.842 5.845v17.528h9.35c3.272 0 5.842 2.573 5.842 5.845s-2.57 5.842-5.842 5.842h-9.35v29.22c0 3.155 2.573 5.84 5.845 5.84 1.518 0 2.92-.582 4.088-1.753 2.34-2.337 6.08-2.337 8.3 0 2.336 2.223 2.336 5.962 0 8.298-3.157 3.156-7.597 5.143-12.388 5.143-9.7 0-17.532-7.83-17.532-17.53V65.24zM296.18 117.83c2.336 6.897 8.88 11.687 16.48 11.687 4.79 0 9.23-1.987 12.386-5.143 2.22-2.22 5.962-2.22 8.298 0 2.22 2.337 2.22 5.962 0 8.298-5.492 5.26-12.622 8.532-20.685 8.532-16.248 0-29.22-12.972-29.22-29.216 0-16.247 12.972-29.22 29.22-29.22 16.243 0 29.216 12.973 29.216 29.22 0 3.156-2.57 5.842-5.845 5.842h-39.85zm32.957-11.687c-2.337-6.894-8.88-11.687-16.477-11.687-7.6 0-14.143 4.793-16.597 11.687h33.074zM346.564 88.613c0-3.272 2.573-5.845 5.845-5.845 3.27 0 5.84 2.573 5.84 5.845 5.027-3.625 10.986-5.845 17.533-5.845 16.244 0 29.216 12.972 29.216 29.22v23.373c0 3.273-2.57 5.843-5.846 5.843-3.272 0-5.842-2.57-5.842-5.842v-23.373c0-9.7-7.83-17.532-17.53-17.532s-17.53 7.832-17.53 17.532v23.374c0 3.273-2.57 5.843-5.843 5.843s-5.846-2.57-5.846-5.842V88.614z"/></g></svg>