<svg width="191" height="41" viewBox="0 0 191 41" fill="none" xmlns="http://www.w3.org/2000/svg">
  <path d="M61.2591 19.12V16H57.5391V11.8L54.2991 12.76V16H51.5391V19.12H54.2991V26.32C54.2991 30.22 56.2791 31.6 61.2591 31V28.09C58.7991 28.21 57.5391 28.24 57.5391 26.32V19.12H61.2591Z" fill="white"/>
  <path d="M75.4624 16V18.13C74.3224 16.57 72.5524 15.61 70.2124 15.61C66.1324 15.61 62.7424 19.03 62.7424 23.5C62.7424 27.94 66.1324 31.39 70.2124 31.39C72.5524 31.39 74.3224 30.43 75.4624 28.84V31H78.7024V16H75.4624ZM70.7224 28.3C68.0224 28.3 65.9824 26.29 65.9824 23.5C65.9824 20.71 68.0224 18.7 70.7224 18.7C73.4224 18.7 75.4624 20.71 75.4624 23.5C75.4624 26.29 73.4224 28.3 70.7224 28.3Z" fill="white"/>
  <path d="M84.0989 13.75C85.2389 13.75 86.1689 12.79 86.1689 11.68C86.1689 10.54 85.2389 9.60997 84.0989 9.60997C82.9589 9.60997 82.0289 10.54 82.0289 11.68C82.0289 12.79 82.9589 13.75 84.0989 13.75ZM82.4789 31H85.7189V16H82.4789V31Z" fill="white"/>
  <path d="M89.4809 31H92.7209V9.09998H89.4809V31Z" fill="white"/>
  <path d="M113.763 16L110.823 26.35L107.703 16H104.613L101.463 26.35L98.5528 16H95.1328L99.8428 31H103.023L106.173 20.89L109.293 31H112.473L117.183 16H113.763Z" fill="white"/>
  <path d="M121.189 13.75C122.329 13.75 123.259 12.79 123.259 11.68C123.259 10.54 122.329 9.60997 121.189 9.60997C120.049 9.60997 119.119 10.54 119.119 11.68C119.119 12.79 120.049 13.75 121.189 13.75ZM119.569 31H122.809V16H119.569V31Z" fill="white"/>
  <path d="M134.461 15.61C132.421 15.61 130.801 16.36 129.811 17.92V16H126.571V31H129.811V22.96C129.811 19.9 131.491 18.64 133.621 18.64C135.661 18.64 136.981 19.84 136.981 22.12V31H140.221V21.79C140.221 17.89 137.821 15.61 134.461 15.61Z" fill="white"/>
  <path d="M155.589 9.99997V18.13C154.449 16.57 152.679 15.61 150.339 15.61C146.259 15.61 142.869 19.03 142.869 23.5C142.869 27.94 146.259 31.39 150.339 31.39C152.679 31.39 154.449 30.43 155.589 28.84V31H158.829V9.99997H155.589ZM150.849 28.3C148.149 28.3 146.109 26.29 146.109 23.5C146.109 20.71 148.149 18.7 150.849 18.7C153.549 18.7 155.589 20.71 155.589 23.5C155.589 26.29 153.549 28.3 150.849 28.3Z" fill="white"/>
  <path fill-rule="evenodd" clip-rule="evenodd" d="M23.0001 10C17.6667 10 14.3334 12.6667 13.0001 18C15.0001 15.3333 17.3334 14.3333 20.0001 15C21.5216 15.3804 22.609 16.4842 23.8128 17.706C25.7736 19.6964 28.0431 22 33.0001 22C38.3334 22 41.6667 19.3333 43.0001 14C41.0001 16.6667 38.6667 17.6667 36.0001 17C34.4786 16.6196 33.3911 15.5158 32.1874 14.294C30.2265 12.3036 27.9571 10 23.0001 10ZM13 22.0001C7.66667 22.0001 4.33333 24.6667 3 30.0001C5 27.3334 7.33333 26.3334 10 27.0001C11.5215 27.3804 12.609 28.4842 13.8127 29.7061C15.7736 31.6965 18.043 34.0001 23 34.0001C28.3333 34.0001 31.6667 31.3334 33 26.0001C31 28.6667 28.6667 29.6667 26 29.0001C24.4785 28.6197 23.3911 27.5159 22.1873 26.294C20.2264 24.3037 17.957 22.0001 13 22.0001Z" fill="#4FD1C5"/>
  <path d="M175.064 26.696C177.22 26.696 178.816 25.408 178.816 23.294V16.7H176.884V23.14C176.884 24.092 176.38 24.806 175.064 24.806C173.748 24.806 173.244 24.092 173.244 23.14V16.7H171.326V23.294C171.326 25.408 172.922 26.696 175.064 26.696Z" fill="white"/>
  <path d="M180.837 16.7V26.5H182.769V16.7H180.837Z" fill="white"/>
  <mask id="path-4-inside-1" fill="white">
    <path fill-rule="evenodd" clip-rule="evenodd" d="M166 16C166 12.6863 168.686 10 172 10H182C185.314 10 188 12.6863 188 16V26C188 29.3137 185.314 32 182 32H172C168.686 32 166 29.3137 166 26V16ZM172 12C169.791 12 168 13.7909 168 16V26C168 28.2091 169.791 30 172 30H182C184.209 30 186 28.2091 186 26V16C186 13.7909 184.209 12 182 12H172Z"/>
  </mask>
  <path fill-rule="evenodd" clip-rule="evenodd" d="M166 16C166 12.6863 168.686 10 172 10H182C185.314 10 188 12.6863 188 16V26C188 29.3137 185.314 32 182 32H172C168.686 32 166 29.3137 166 26V16ZM172 12C169.791 12 168 13.7909 168 16V26C168 28.2091 169.791 30 172 30H182C184.209 30 186 28.2091 186 26V16C186 13.7909 184.209 12 182 12H172Z" fill="white"/>
  <path d="M172 8C167.582 8 164 11.5817 164 16H168C168 13.7909 169.791 12 172 12V8ZM182 8H172V12H182V8ZM190 16C190 11.5817 186.418 8 182 8V12C184.209 12 186 13.7909 186 16H190ZM190 26V16H186V26H190ZM182 34C186.418 34 190 30.4183 190 26H186C186 28.2091 184.209 30 182 30V34ZM172 34H182V30H172V34ZM164 26C164 30.4183 167.582 34 172 34V30C169.791 30 168 28.2091 168 26H164ZM164 16V26H168V16H164ZM170 16C170 14.8954 170.895 14 172 14V10C168.686 10 166 12.6863 166 16H170ZM166 16V26H170V16H166ZM172 28C170.895 28 170 27.1046 170 26H166C166 29.3137 168.686 32 172 32V28ZM172 32H182V28H172V32ZM184 26C184 27.1046 183.105 28 182 28V32C185.314 32 188 29.3137 188 26H184ZM188 26V16H184V26H188ZM182 14C183.105 14 184 14.8954 184 16H188C188 12.6863 185.314 10 182 10V14ZM182 10H172V14H182V10Z" fill="white" mask="url(#path-4-inside-1)"/>
</svg>
